<?xml version="1.0" encoding="UTF-8" standalone="no"?>
<svg width="125px" height="80px" viewBox="0 0 125 80" version="1.1" xmlns="http://www.w3.org/2000/svg" xmlns:xlink="http://www.w3.org/1999/xlink" xmlns:sketch="http://www.bohemiancoding.com/sketch/ns">
    <!-- Generator: Sketch 3.1.1 (8761) - http://www.bohemiancoding.com/sketch -->
    <title>mohnilogo_sinine 2</title>
    <desc>Created with Sketch.</desc>
    <defs></defs>
    <g id="Page-1" stroke="none" stroke-width="1" fill="none" fill-rule="evenodd" sketch:type="MSPage">
        <g id="mohnilogo_sinine" sketch:type="MSLayerGroup" transform="translate(2.000000, 2.000000)" fill="white">
            <path d="M96.6605505,29.1176471 C94.7889908,29.1176471 93.2477064,30.5514706 93.2477064,32.4264706 C93.2477064,34.3014706 94.6788991,35.8455882 96.5504587,35.8455882 C98.4220183,35.8455882 99.9633028,34.4117647 99.9633028,32.5367647 C99.9633028,30.6617647 98.5321101,29.1176471 96.6605505,29.1176471 L96.6605505,29.1176471 Z M109.651376,32.3161765 C109.541284,39.7058824 103.376147,45.6617647 96,45.5514706 C88.6238532,45.4411765 82.6788991,39.2647059 82.7889908,31.875 C82.7889908,31.2132353 82.8990826,30.6617647 83.0091743,30 C81.9082569,29.6691176 79.4862385,28.8970588 76.1834862,28.2352941 C75.853211,32.0955882 78.6055046,39.2647059 76.293578,39.4852941 C73.8715596,39.7058824 72.440367,30.4411765 72.440367,27.5735294 C70.4587156,27.2426471 68.3669725,27.0220588 66.0550459,26.9117647 C65.2844037,32.5367647 70.2385321,42.3529412 67.3761468,43.5661765 C64.0733945,44.8897059 61.9816514,31.2132353 62.2018349,26.8014706 C59.559633,26.8014706 56.8073394,27.0220588 54.0550459,27.3529412 C54.3853211,33.3088235 60.5504587,43.2352941 57.9082569,44.8897059 C54.9357798,46.875 50.5321101,32.6470588 49.8715596,28.125 C47.7798165,28.5661765 45.5779817,29.2279412 43.4862385,30.1102941 C44.8073394,35.7352941 50.8623853,44.0073529 48.440367,45.9926471 C45.6880734,48.1985294 40.733945,35.9558824 39.7431193,31.7647059 C37.8715596,32.7573529 36,33.8602941 34.1284404,35.1838235 C34.5688073,38.2720588 38.8623853,42.2426471 37.7614679,45 C36.5504587,47.9779412 31.5963303,39.375 30.8256881,37.7205882 C27.1926606,40.3676471 24.440367,42.4632353 22.2385321,43.8970588 C24,48.3088235 23.2293578,53.6029412 22.7889908,55.3676471 C22.1284404,57.6838235 20.587156,61.3235294 19.266055,61.2132353 C18.7155963,61.2132353 16.8440367,61.9852941 18.3853211,53.7132353 C19.0458716,50.625 18.9357798,48.1985294 18.3853211,46.4338235 C14.0917431,49.0808824 14.0917431,48.1985294 13.7614679,47.8676471 C13.4311927,47.4264706 12.1100917,46.7647059 15.412844,42.5735294 C10.6788991,39.8161765 2.75229358,42.3529412 2.75229358,42.3529412 C2.75229358,42.3529412 0.990825688,42.9044118 0.330275229,42.0220588 C-0.330275229,40.9191176 0.110091743,38.1617647 6.49541284,37.1691176 C12.1100917,36.3970588 15.9633028,37.2794118 18.4954128,39.0441176 C20.587156,36.8382353 23.559633,33.9705882 27.7431193,30.3308824 C27.6330275,30.2205882 27.6330275,30.1102941 27.5229358,30 C26.3119266,28.0147059 23.1192661,18.3088235 25.4311927,17.4264706 C27.6330275,16.5441176 28.1834862,24.7058824 30.4954128,27.9044118 C32.587156,26.25 34.7889908,24.9264706 37.1009174,23.7132353 C36.8807339,22.9411765 36.6605505,21.7279412 36.1100917,20.0735294 C35.1192661,16.6544118 34.5688073,4.08088235 38.3119266,4.85294118 C41.3944954,5.625 38.9724771,16.5441176 41.0642202,21.8382353 C43.4862385,20.8455882 46.0183486,20.1838235 48.440367,19.6323529 C48.3302752,18.75 48.3302752,17.3161765 48.3302752,15.2205882 C48.3302752,10.8088235 49.8715596,-1.54411765 54.3853211,-0.441176471 C57.7981651,0.441176471 51.9633028,11.9117647 53.0642202,18.75 C56.146789,18.3088235 59.1192661,18.0882353 62.0917431,18.0882353 C62.3119266,16.9852941 62.6422018,15.6617647 62.9724771,14.0073529 C63.6330275,10.4779412 67.8165138,-1.10294118 70.6788991,1.32352941 C73.2110092,3.41911765 66.7155963,12.5735294 66.4954128,18.1985294 C69.0275229,18.3088235 71.3394495,18.6397059 73.6513761,18.9705882 C74.5321101,15.9926471 78.2752294,7.5 80.4770642,8.38235294 C82.6788991,9.26470588 78.2752294,15.7720588 77.0642202,19.6323529 C80.9174312,20.4044118 84.1100917,21.5073529 86.4220183,22.6102941 C88.9541284,19.8529412 92.587156,18.0882353 96.6605505,18.1985294 C103.926606,18.75 109.87156,24.9264706 109.651376,32.3161765 L109.651376,32.3161765 Z M30.9357798,37.8308824 C30.9357798,37.8308824 30.8256881,37.9411765 30.9357798,37.8308824 C30.8256881,37.9411765 30.8256881,37.9411765 30.9357798,37.8308824 L30.9357798,37.8308824 Z M104.366972,32.4264706 C104.477064,28.125 100.954128,24.4852941 96.6605505,24.4852941 C92.3669725,24.375 88.733945,27.9044118 88.733945,32.2058824 C88.733945,36.5073529 92.146789,40.1470588 96.440367,40.1470588 C100.733945,40.2573529 104.366972,36.7279412 104.366972,32.4264706 L104.366972,32.4264706 Z M113.614679,33.9705882 C112.954128,33.9705882 111.743119,33.8602941 111.633028,35.0735294 C111.522936,35.9558824 112.40367,37.3897059 113.06422,38.1617647 C114.825688,39.8161765 115.376147,41.1397059 114.495413,41.1397059 C114.165138,41.1397059 110.091743,41.1397059 109.651376,41.25 C108.220183,41.5808824 107.449541,42.4632353 107.669725,43.2352941 C107.779817,43.8970588 109.100917,44.4485294 109.321101,44.5588235 C109.87156,44.6691176 117.798165,45.1102941 119.559633,43.3455882 C121.211009,41.3602941 114.715596,33.9705882 113.614679,33.9705882 L113.614679,33.9705882 Z M50.5321101,58.4558824 C50.5321101,57.1323529 50.6422018,56.25 50.5321101,56.1397059 C50.4220183,55.2573529 48.5504587,53.0514706 47.4495413,54.9264706 C47.0091743,55.5882353 46.6788991,57.7941176 46.4587156,60.6617647 C43.9266055,62.0955882 42.1651376,63.1985294 42.1651376,63.1985294 L37.1009174,60 C37.3211009,57.1323529 37.4311927,54.8161765 37.4311927,54.8161765 C37.4311927,54.8161765 36,52.5 34.4587156,54.1544118 C34.1284404,54.5955882 33.6880734,55.9191176 33.4678899,57.6838235 L33.0275229,57.3529412 C33.0275229,57.3529412 32.0366972,56.9117647 31.5963303,57.1323529 C30.8256881,57.4632353 30.3853211,58.6764706 31.3761468,59.6691176 C31.706422,60 32.2568807,60.5514706 33.0275229,61.1029412 C32.4770642,66.2867647 32.2568807,72.5735294 32.9174312,73.6764706 C33.9082569,75.4411765 36,73.3455882 36.2201835,72.3529412 C36.3302752,71.9117647 36.5504587,67.9411765 36.8807339,63.8602941 C39.412844,65.7352941 41.8348624,67.3897059 41.8348624,67.3897059 L46.2385321,64.6323529 C46.1284404,69.0441176 46.2385321,73.5661765 46.8990826,74.3382353 C48.2201835,75.9926471 49.8715596,73.6764706 49.8715596,73.6764706 C49.8715596,73.6764706 50.0917431,67.1691176 50.3119266,62.0955882 L52.0733945,60.9926471 C52.1834862,60.9926471 53.5045872,57.3529412 50.5321101,58.4558824 L50.5321101,58.4558824 Z M71.2293578,61.5441176 C71.4495413,57.0220588 71.4495413,52.8308824 71.0091743,52.0588235 C69.9082569,50.2941176 67.9266055,52.5 67.8165138,53.4926471 C67.706422,53.9338235 67.4862385,57.7941176 67.266055,61.875 C64.4036697,62.7573529 64.8440367,65.0735294 65.8348624,65.4044118 C66.1651376,65.5147059 66.6055046,65.5147059 67.0458716,65.5147059 C66.8256881,69.2647059 66.6055046,72.3529412 66.6055046,72.3529412 C66.6055046,72.3529412 66.2752294,76.875 69.2477064,74.2279412 C70.0183486,73.5661765 70.6788991,69.1544118 71.1192661,64.4117647 C72.440367,64.1911765 75.853211,64.1911765 73.5412844,70.3676471 C71.7798165,75 73.5412844,74.6691176 74.3119266,74.4485294 C75.3027523,74.2279412 82.1284404,61.9852941 71.2293578,61.5441176 L71.2293578,61.5441176 Z M84.1100917,61.9852941 C84,61.7647059 84,61.4338235 83.8899083,61.3235294 C82.7889908,59.5588235 81.2477064,61.3235294 81.1376147,62.2058824 L81.1376147,62.2058824 C78.0550459,62.9779412 78.4954128,65.4044118 79.5963303,65.7352941 C79.9266055,65.8455882 80.3669725,65.8455882 80.9174312,65.8455882 C80.6972477,68.9338235 80.3669725,72.6838235 80.3669725,72.6838235 C80.3669725,72.6838235 80.0366972,77.2058824 83.0091743,74.5588235 C84.1100917,73.5661765 84.6605505,68.4926471 84.5504587,64.8529412 C85.4311927,64.6323529 89.9449541,63.8602941 87.3027523,70.6985294 C85.5412844,75.3308824 87.3027523,75 88.0733945,74.7794118 C89.1743119,74.6691176 96.3302752,61.7647059 84.1100917,61.9852941 L84.1100917,61.9852941 Z M95.2293578,61.875 C93.5779817,63.3088235 93.4678899,72.4632353 94.4587156,74.2279412 C95.559633,75.9926471 97.2110092,73.7867647 97.3211009,72.9044118 C97.4311927,71.9117647 97.8715596,63.75 97.8715596,63.75 C97.8715596,63.75 98.2018349,59.2279412 95.2293578,61.875 L95.2293578,61.875 Z M96.5504587,55.1470588 C95.3394495,55.1470588 94.4587156,56.1397059 94.4587156,57.3529412 C94.4587156,58.5661765 95.4495413,59.5588235 96.5504587,59.5588235 C97.7614679,59.5588235 98.6422018,58.5661765 98.6422018,57.3529412 C98.6422018,56.1397059 97.6513761,55.1470588 96.5504587,55.1470588 L96.5504587,55.1470588 Z M64.1834862,68.8235294 C64.1834862,72.2426471 61.3211009,74.6691176 58.0183486,74.6691176 C54.7155963,74.6691176 52.0733945,72.2426471 52.0733945,68.8235294 C52.0733945,65.4044118 54.8256881,62.5367647 58.1284404,62.5367647 C61.4311927,62.5367647 64.1834862,65.4044118 64.1834862,68.8235294 L64.1834862,68.8235294 Z M61.1009174,69.0441176 C61.1009174,67.3897059 59.7798165,66.0661765 58.2385321,66.0661765 C56.6972477,66.0661765 55.3761468,67.3897059 55.3761468,69.0441176 C55.3761468,70.6985294 56.587156,71.8014706 58.1284404,71.8014706 C59.7798165,71.8014706 61.1009174,70.5882353 61.1009174,69.0441176 L61.1009174,69.0441176 Z M58.3486239,67.7205882 C57.6880734,67.7205882 57.0275229,68.2720588 57.0275229,69.0441176 C57.0275229,69.7058824 57.5779817,70.3676471 58.3486239,70.3676471 C59.1192661,70.3676471 59.6697248,69.8161765 59.6697248,69.0441176 C59.6697248,68.2720588 59.1192661,67.7205882 58.3486239,67.7205882 L58.3486239,67.7205882 Z" id="Shape" sketch:type="MSShapeGroup"></path>
        </g>
    </g>
</svg>
